<svg xmlns="http://www.w3.org/2000/svg" version="1.1" xmlns:xlink="http://www.w3.org/1999/xlink" xmlns:svgjs="http://svgjs.com/svgjs" width="2048" height="1080" preserveAspectRatio="none" viewBox="0 0 2048 1080"><g mask="url(&quot;#SvgjsMask1333&quot;)" fill="none"><rect width="2048" height="1080" x="0" y="0" fill="rgba(0, 0, 0, 1)"></rect><g transform="translate(0, 0)" stroke-linecap="round"><path d="M334 306.02 L334 773.98" stroke-width="17.25" stroke="rgba(182, 235, 201, 1)"></path><path d="M357 471.18 L357 608.83" stroke-width="17.25" stroke="rgba(29, 185, 84, 1)"></path><path d="M380 240.81 L380 839.19" stroke-width="17.25" stroke="rgba(182, 235, 201, 1)"></path><path d="M403 356.02 L403 723.98" stroke-width="17.25" stroke="rgba(29, 185, 84, 1)"></path><path d="M426 265.89 L426 814.11" stroke-width="17.25" stroke="rgba(29, 185, 84, 1)"></path><path d="M449 255.2 L449 824.8" stroke-width="17.25" stroke="rgba(182, 235, 201, 1)"></path><path d="M472 423.01 L472 656.99" stroke-width="17.25" stroke="rgba(29, 185, 84, 1)"></path><path d="M495 200.85 L495 879.15" stroke-width="17.25" stroke="rgba(29, 185, 84, 1)"></path><path d="M518 327.19 L518 752.81" stroke-width="17.25" stroke="rgba(29, 185, 84, 1)"></path><path d="M541 378.56 L541 701.44" stroke-width="17.25" stroke="rgba(29, 185, 84, 1)"></path><path d="M564 220.99 L564 859.01" stroke-width="17.25" stroke="rgba(29, 185, 84, 1)"></path><path d="M587 353.36 L587 726.64" stroke-width="17.25" stroke="rgba(182, 235, 201, 1)"></path><path d="M610 439.77 L610 640.23" stroke-width="17.25" stroke="rgba(182, 235, 201, 1)"></path><path d="M633 260.85 L633 819.15" stroke-width="17.25" stroke="rgba(182, 235, 201, 1)"></path><path d="M656 456.18 L656 623.82" stroke-width="17.25" stroke="rgba(29, 185, 84, 1)"></path><path d="M679 219.15 L679 860.85" stroke-width="17.25" stroke="rgba(29, 185, 84, 1)"></path><path d="M702 459.63 L702 620.37" stroke-width="17.25" stroke="rgba(182, 235, 201, 1)"></path><path d="M725 300.1 L725 779.9" stroke-width="17.25" stroke="rgba(182, 235, 201, 1)"></path><path d="M748 423.39 L748 656.61" stroke-width="17.25" stroke="rgba(182, 235, 201, 1)"></path><path d="M771 213.1 L771 866.9" stroke-width="17.25" stroke="rgba(29, 185, 84, 1)"></path><path d="M794 181.54 L794 898.46" stroke-width="17.25" stroke="rgba(182, 235, 201, 1)"></path><path d="M817 354.44 L817 725.56" stroke-width="17.25" stroke="rgba(182, 235, 201, 1)"></path><path d="M840 392.99 L840 687.01" stroke-width="17.25" stroke="rgba(29, 185, 84, 1)"></path><path d="M863 262.44 L863 817.56" stroke-width="17.25" stroke="rgba(29, 185, 84, 1)"></path><path d="M886 265.04 L886 814.96" stroke-width="17.25" stroke="rgba(182, 235, 201, 1)"></path><path d="M909 205.58 L909 874.42" stroke-width="17.25" stroke="rgba(29, 185, 84, 1)"></path><path d="M932 243 L932 837" stroke-width="17.25" stroke="rgba(29, 185, 84, 1)"></path><path d="M955 458.56 L955 621.44" stroke-width="17.25" stroke="rgba(182, 235, 201, 1)"></path><path d="M978 382.31 L978 697.68" stroke-width="17.25" stroke="rgba(182, 235, 201, 1)"></path><path d="M1001 296.93 L1001 783.08" stroke-width="17.25" stroke="rgba(182, 235, 201, 1)"></path><path d="M1024 293.56 L1024 786.43" stroke-width="17.25" stroke="rgba(182, 235, 201, 1)"></path><path d="M1047 443.25 L1047 636.75" stroke-width="17.25" stroke="rgba(182, 235, 201, 1)"></path><path d="M1070 457.43 L1070 622.58" stroke-width="17.25" stroke="rgba(182, 235, 201, 1)"></path><path d="M1093 328.87 L1093 751.13" stroke-width="17.25" stroke="rgba(29, 185, 84, 1)"></path><path d="M1116 368.11 L1116 711.89" stroke-width="17.25" stroke="rgba(182, 235, 201, 1)"></path><path d="M1139 247.86 L1139 832.14" stroke-width="17.25" stroke="rgba(29, 185, 84, 1)"></path><path d="M1162 265.35 L1162 814.65" stroke-width="17.25" stroke="rgba(29, 185, 84, 1)"></path><path d="M1185 281.35 L1185 798.65" stroke-width="17.25" stroke="rgba(29, 185, 84, 1)"></path><path d="M1208 236.62 L1208 843.38" stroke-width="17.25" stroke="rgba(29, 185, 84, 1)"></path><path d="M1231 264.51 L1231 815.49" stroke-width="17.25" stroke="rgba(182, 235, 201, 1)"></path><path d="M1254 290.32 L1254 789.67" stroke-width="17.25" stroke="rgba(29, 185, 84, 1)"></path><path d="M1277 184.55 L1277 895.45" stroke-width="17.25" stroke="rgba(182, 235, 201, 1)"></path><path d="M1300 322.19 L1300 757.82" stroke-width="17.25" stroke="rgba(182, 235, 201, 1)"></path><path d="M1323 359.54 L1323 720.46" stroke-width="17.25" stroke="rgba(182, 235, 201, 1)"></path><path d="M1346 478.23 L1346 601.77" stroke-width="17.25" stroke="rgba(182, 235, 201, 1)"></path><path d="M1369 298.91 L1369 781.09" stroke-width="17.25" stroke="rgba(182, 235, 201, 1)"></path><path d="M1392 332.6 L1392 747.4" stroke-width="17.25" stroke="rgba(29, 185, 84, 1)"></path><path d="M1415 397.36 L1415 682.64" stroke-width="17.25" stroke="rgba(29, 185, 84, 1)"></path><path d="M1438 320.01 L1438 759.99" stroke-width="17.25" stroke="rgba(182, 235, 201, 1)"></path><path d="M1461 468.75 L1461 611.25" stroke-width="17.25" stroke="rgba(182, 235, 201, 1)"></path><path d="M1484 291.21 L1484 788.79" stroke-width="17.25" stroke="rgba(29, 185, 84, 1)"></path><path d="M1507 451.5 L1507 628.5" stroke-width="17.25" stroke="rgba(182, 235, 201, 1)"></path><path d="M1530 221.25 L1530 858.75" stroke-width="17.25" stroke="rgba(182, 235, 201, 1)"></path><path d="M1553 252.37 L1553 827.63" stroke-width="17.25" stroke="rgba(182, 235, 201, 1)"></path><path d="M1576 257.86 L1576 822.14" stroke-width="17.25" stroke="rgba(29, 185, 84, 1)"></path><path d="M1599 232.44 L1599 847.56" stroke-width="17.25" stroke="rgba(29, 185, 84, 1)"></path><path d="M1622 478.49 L1622 601.51" stroke-width="17.25" stroke="rgba(182, 235, 201, 1)"></path><path d="M1645 340.3 L1645 739.7" stroke-width="17.25" stroke="rgba(182, 235, 201, 1)"></path><path d="M1668 392.18 L1668 687.83" stroke-width="17.25" stroke="rgba(29, 185, 84, 1)"></path><path d="M1691 238.06 L1691 841.93" stroke-width="17.25" stroke="rgba(29, 185, 84, 1)"></path><path d="M1714 439 L1714 641" stroke-width="17.25" stroke="rgba(29, 185, 84, 1)"></path></g></g><defs><mask id="SvgjsMask1333"><rect width="2048" height="1080" fill="#ffffff"></rect></mask></defs></svg>